<svg
  xmlns="http://www.w3.org/2000/svg"
  width="14"
  height="13"
  viewBox="0 0 14 13"
  fill="#FC4CDA"
>
  <path
    d="M13.7068 6.70734L8.7066 11.7076C8.51284 11.9044 8.25657 12.0013 8.00031 12.0013C7.74405 12.0013 7.48842 11.9037 7.29341 11.7083C6.90276 11.3177 6.90276 10.6849 7.29341 10.2942L10.5879 7.0011H0.999995C0.447783 7.0011 0 6.5542 0 6.00105C0 5.4479 0.447783 5.00101 0.999995 5.00101H10.5879L7.29403 1.70711C6.90339 1.31647 6.90339 0.683625 7.29403 0.292982C7.68467 -0.0976607 8.31752 -0.0976607 8.70816 0.292982L13.7084 5.29321C14.0975 5.68541 14.0975 6.31669 13.7068 6.70734Z"
  ></path>
</svg>
