<svg xmlns="http://www.w3.org/2000/svg" width="31" height="31" viewBox="0 0 31 31" fill="none"><g clip-path="url(#clip0_24_298)"><path d="M18.4 14.5695L11.44 0.819531C11.44 0.819531 11.43 0.799531 11.42 0.799531C11.39 0.749531 11.36 0.699531 11.33 0.659531C11.31 0.619531 11.28 0.589531 11.26 0.559531C11.23 0.519531 11.19 0.489531 11.16 0.459531C11.12 0.419531 11.09 0.389531 11.05 0.359531C11.02 0.329531 10.98 0.309531 10.95 0.289531C10.9 0.259531 10.85 0.219531 10.8 0.199531C10.8 0.199531 10.78 0.189531 10.78 0.179531C10.75 0.159531 10.72 0.159531 10.69 0.139531C10.64 0.119531 10.59 0.0995312 10.53 0.0795312C10.49 0.0695312 10.44 0.0595312 10.39 0.0495313C10.34 0.0495313 10.29 0.0295312 10.24 0.0195312C10.19 0.0195312 10.15 0.0195312 10.1 0.0195312C10.05 0.0195312 9.99999 0.0195312 9.94999 0.0195312C9.89999 0.0195312 9.85999 0.0295312 9.80999 0.0395312C9.75999 0.0395312 9.70999 0.0595312 9.66999 0.0695313C9.61999 0.0895313 9.56999 0.109531 9.51999 0.129531C9.48999 0.139531 9.44999 0.149531 9.41999 0.169531C9.41999 0.169531 9.39999 0.179531 9.38999 0.189531C9.33999 0.209531 9.29999 0.249531 9.25999 0.279531C9.21999 0.309531 9.17999 0.329531 9.14999 0.359531C9.10999 0.389531 9.07999 0.419531 9.04999 0.459531C9.00999 0.499531 8.96999 0.529531 8.93999 0.569531C8.91999 0.599531 8.89999 0.629531 8.87999 0.659531C8.83999 0.709531 8.80999 0.759531 8.77999 0.819531C8.77999 0.819531 8.77999 0.829531 8.76999 0.839531L0.159987 17.8195C-0.220013 18.5595 0.0799866 19.4595 0.819987 19.8395C1.03999 19.9495 1.26999 19.9995 1.49999 19.9995C2.04999 19.9995 2.57999 19.6995 2.83999 19.1795L6.09999 12.7495H14.11L15.72 15.9295C15.98 16.4495 16.51 16.7495 17.06 16.7495C17.29 16.7495 17.52 16.6995 17.74 16.5895C18.48 16.2195 18.78 15.3095 18.4 14.5695ZM7.60999 9.73953L10.1 4.81953L12.59 9.73953H7.60999Z" fill="black"></path><path d="M24.23 30.5C27.8199 30.5 30.73 27.5899 30.73 24C30.73 20.4101 27.8199 17.5 24.23 17.5C20.6402 17.5 17.73 20.4101 17.73 24C17.73 27.5899 20.6402 30.5 24.23 30.5Z" fill="#3613FA"></path><path d="M24.23 27.5C23.68 27.5 23.23 27.05 23.23 26.5V21.5C23.23 20.95 23.68 20.5 24.23 20.5C24.78 20.5 25.23 20.95 25.23 21.5V26.5C25.23 27.05 24.78 27.5 24.23 27.5Z" fill="white"></path><path d="M26.73 25H21.73C21.18 25 20.73 24.55 20.73 24C20.73 23.45 21.18 23 21.73 23H26.73C27.28 23 27.73 23.45 27.73 24C27.73 24.55 27.28 25 26.73 25Z" fill="white"></path></g><defs><clipPath id="clip0_24_298"><rect width="30.73" height="30.5" fill="white"></rect></clipPath></defs></svg>