<svg xmlns="http://www.w3.org/2000/svg" width="28" height="31" viewBox="0 0 28 31" fill="none"><g clip-path="url(#clip0_24_293)"><path d="M21.36 30.75C24.9498 30.75 27.86 27.8399 27.86 24.25C27.86 20.6601 24.9498 17.75 21.36 17.75C17.7701 17.75 14.86 20.6601 14.86 24.25C14.86 27.8399 17.7701 30.75 21.36 30.75Z" fill="#3613FA"></path><path d="M21.36 27.75C20.81 27.75 20.36 27.3 20.36 26.75V21.75C20.36 21.2 20.81 20.75 21.36 20.75C21.91 20.75 22.36 21.2 22.36 21.75V26.75C22.36 27.3 21.91 27.75 21.36 27.75Z" fill="white"></path><path d="M23.86 25.25H18.86C18.31 25.25 17.86 24.8 17.86 24.25C17.86 23.7 18.31 23.25 18.86 23.25H23.86C24.41 23.25 24.86 23.7 24.86 24.25C24.86 24.8 24.41 25.25 23.86 25.25Z" fill="white"></path><path d="M5.26999 21.75C4.95999 21.75 4.64999 21.65 4.38999 21.46C3.92999 21.12 3.69999 20.56 3.78999 19.99L4.81999 13.98L0.449995 9.74C0.0399948 9.34 -0.110005 8.75 0.0699948 8.2C0.249995 7.66 0.719995 7.26 1.27999 7.18L7.30999 6.3L10.01 0.84C10.26 0.33 10.78 0 11.35 0C11.92 0 12.44 0.32 12.69 0.84L15.39 6.3L21.42 7.18C21.98 7.26 22.45 7.66 22.63 8.2C22.81 8.74 22.66 9.34 22.25 9.74L17.89 13.99L18.02 14.75C18.16 15.57 17.61 16.34 16.8 16.48C15.99 16.62 15.21 16.07 15.07 15.26L14.81 13.73C14.73 13.24 14.89 12.75 15.24 12.4L17.99 9.72L14.19 9.17C13.7 9.1 13.28 8.79 13.06 8.35L11.36 4.9L9.66 8.35C9.43999 8.79 9.01999 9.1 8.52999 9.17L4.72999 9.72L7.47999 12.4C7.82999 12.74 7.98999 13.24 7.90999 13.73L7.25999 17.52L10.66 15.73C11.1 15.5 11.62 15.5 12.06 15.73L13.17 16.31C13.9 16.7 14.18 17.6 13.8 18.34C13.41 19.07 12.51 19.36 11.77 18.97L11.36 18.75L5.96999 21.59C5.74999 21.71 5.50999 21.76 5.26999 21.76V21.75Z" fill="black"></path></g><defs><clipPath id="clip0_24_293"><rect width="27.86" height="30.75" fill="white"></rect></clipPath></defs></svg>