<svg xmlns="http://www.w3.org/2000/svg" width="30" height="29" viewBox="0 0 30 29" fill="none"><g clip-path="url(#clip0_24_288)"><path d="M23.14 29C26.7299 29 29.64 26.0899 29.64 22.5C29.64 18.9101 26.7299 16 23.14 16C19.5501 16 16.64 18.9101 16.64 22.5C16.64 26.0899 19.5501 29 23.14 29Z" fill="#3613FA"></path><path d="M23.14 26C22.59 26 22.14 25.55 22.14 25V20C22.14 19.45 22.59 19 23.14 19C23.69 19 24.14 19.45 24.14 20V25C24.14 25.55 23.69 26 23.14 26Z" fill="white"></path><path d="M25.64 23.5H20.64C20.09 23.5 19.64 23.05 19.64 22.5C19.64 21.95 20.09 21.5 20.64 21.5H25.64C26.19 21.5 26.64 21.95 26.64 22.5C26.64 23.05 26.19 23.5 25.64 23.5Z" fill="white"></path><path d="M1.5 3H21.39C22.22 3 22.89 2.33 22.89 1.5C22.89 0.67 22.22 0 21.39 0H1.5C0.67 0 0 0.67 0 1.5C0 2.33 0.67 3 1.5 3ZM21.39 8.19H1.5C0.67 8.19 0 8.86 0 9.69C0 10.52 0.67 11.19 1.5 11.19H21.39C22.22 11.19 22.89 10.52 22.89 9.69C22.89 8.86 22.22 8.19 21.39 8.19ZM12.82 16.38H1.5C0.67 16.38 0 17.05 0 17.88C0 18.71 0.67 19.38 1.5 19.38H12.82C13.65 19.38 14.32 18.71 14.32 17.88C14.32 17.05 13.65 16.38 12.82 16.38Z" fill="black"></path></g><defs><clipPath id="clip0_24_288"><rect width="29.64" height="29" fill="white"></rect></clipPath></defs></svg>