<svg xmlns="http://www.w3.org/2000/svg" width="36" height="31" viewBox="0 0 36 31" fill="none"><g clip-path="url(#clip0_24_303)"><path d="M7.89 3C8.72 3 9.39 2.33 9.39 1.5C9.39 0.67 8.72 0 7.89 0C4.72 0 3.3 1.75 3.3 5.68C3.3 7.4 2.83 9.25 1.5 9.25C0.67 9.25 0 9.92 0 10.75C0 11.58 0.67 12.25 1.5 12.25C2.83 12.25 3.3 14.09 3.3 15.82C3.3 19.75 4.71 21.5 7.88 21.5C8.71 21.5 9.38 20.83 9.38 20C9.38 19.17 8.71 18.5 7.88 18.5C6.79 18.5 6.3 18.5 6.3 15.82C6.3 13.42 5.67 11.79 4.76 10.75C5.67 9.71 6.3 8.08 6.3 5.68C6.3 3 6.8 3 7.88 3H7.89ZM31.04 9.25C29.71 9.25 29.24 7.41 29.24 5.68C29.24 1.75 27.83 0 24.66 0C23.83 0 23.16 0.67 23.16 1.5C23.16 2.33 23.83 3 24.66 3C25.75 3 26.24 3 26.24 5.68C26.24 8.09 26.88 9.72 27.79 10.76C27.37 11.23 27.03 11.8 26.77 12.47C26.48 13.25 26.87 14.11 27.65 14.4C27.82 14.47 28 14.5 28.18 14.5C28.79 14.5 29.36 14.13 29.58 13.53C29.9 12.68 30.39 12.25 31.04 12.25C31.87 12.25 32.54 11.58 32.54 10.75C32.54 9.92 31.87 9.25 31.04 9.25ZM16.39 11C14.73 11 13.39 12.34 13.39 14C13.39 15.1 13.99 16.05 14.87 16.57L13.6 18.74C13.18 19.45 13.42 20.37 14.13 20.79C14.37 20.93 14.63 21 14.89 21C15.4 21 15.9 20.74 16.18 20.26L18.68 16.01C18.72 15.94 18.75 15.86 18.78 15.79C19.15 15.29 19.38 14.67 19.38 14C19.38 12.34 18.04 11 16.38 11H16.39ZM16.39 1.75C14.73 1.75 13.39 3.09 13.39 4.75C13.39 6.41 14.73 7.75 16.39 7.75C18.05 7.75 19.39 6.41 19.39 4.75C19.39 3.09 18.05 1.75 16.39 1.75Z" fill="black"></path><path d="M29.39 31C32.9799 31 35.89 28.0899 35.89 24.5C35.89 20.9101 32.9799 18 29.39 18C25.8002 18 22.89 20.9101 22.89 24.5C22.89 28.0899 25.8002 31 29.39 31Z" fill="#3613FA"></path><path d="M29.39 28C28.84 28 28.39 27.55 28.39 27V22C28.39 21.45 28.84 21 29.39 21C29.94 21 30.39 21.45 30.39 22V27C30.39 27.55 29.94 28 29.39 28Z" fill="white"></path><path d="M31.89 25.5H26.89C26.34 25.5 25.89 25.05 25.89 24.5C25.89 23.95 26.34 23.5 26.89 23.5H31.89C32.44 23.5 32.89 23.95 32.89 24.5C32.89 25.05 32.44 25.5 31.89 25.5Z" fill="white"></path></g><defs><clipPath id="clip0_24_303"><rect width="35.89" height="31" fill="white"></rect></clipPath></defs></svg>