<svg xmlns="http://www.w3.org/2000/svg" width="30" height="30" viewBox="0 0 30 30" fill="none"><g clip-path="url(#clip0_24_283)"><path d="M22.89 30C26.4799 30 29.39 27.0899 29.39 23.5C29.39 19.9101 26.4799 17 22.89 17C19.3002 17 16.39 19.9101 16.39 23.5C16.39 27.0899 19.3002 30 22.89 30Z" fill="#3613FA"></path><path d="M22.89 27C22.34 27 21.89 26.55 21.89 26V21C21.89 20.45 22.34 20 22.89 20C23.44 20 23.89 20.45 23.89 21V26C23.89 26.55 23.44 27 22.89 27Z" fill="white"></path><path d="M25.39 24.5H20.39C19.84 24.5 19.39 24.05 19.39 23.5C19.39 22.95 19.84 22.5 20.39 22.5H25.39C25.94 22.5 26.39 22.95 26.39 23.5C26.39 24.05 25.94 24.5 25.39 24.5Z" fill="white"></path><path d="M19 0H1.5C0.67 0 0 0.67 0 1.5V19C0 19.83 0.67 20.5 1.5 20.5H11.75C12.58 20.5 13.25 19.83 13.25 19C13.25 18.17 12.58 17.5 11.75 17.5H3V8.5H17.5V12.25C17.5 13.08 18.17 13.75 19 13.75C19.83 13.75 20.5 13.08 20.5 12.25V1.5C20.5 0.67 19.83 0 19 0ZM3 5.5V3H17.5V5.5H3Z" fill="black"></path></g><defs><clipPath id="clip0_24_283"><rect width="29.39" height="30" fill="white"></rect></clipPath></defs></svg>