<svg xmlns="http://www.w3.org/2000/svg" width="39" height="29" viewBox="0 0 39 29" fill="none"><g clip-path="url(#clip0_24_308)"><path d="M36.34 7.46981L29.81 0.939812C29.22 0.349812 28.27 0.349812 27.69 0.939812C27.11 1.52981 27.1 2.47981 27.69 3.05981L33.16 8.52981L30.84 10.8498C30.25 11.4398 30.25 12.3898 30.84 12.9698C31.13 13.2598 31.52 13.4098 31.9 13.4098C32.28 13.4098 32.67 13.2598 32.96 12.9698L36.34 9.58981C36.93 8.99981 36.93 8.04981 36.34 7.46981ZM3.62 8.53981L9.09 3.05981C9.68 2.46981 9.68 1.51981 9.09 0.939812C8.5 0.349812 7.55 0.349812 6.97 0.939812L0.439998 7.46981C-0.150002 8.05981 -0.150002 9.00981 0.439998 9.58981L7.25 16.3998C7.54 16.6898 7.93 16.8398 8.31 16.8398C8.69 16.8398 9.08 16.6898 9.37 16.3998C9.96 15.8098 9.96 14.8598 9.37 14.2798L3.62 8.53981ZM22.16 0.119812C21.4 -0.200188 20.52 0.159812 20.2 0.919812L14.02 15.6698C13.7 16.4298 14.06 17.3098 14.82 17.6298C15.01 17.7098 15.21 17.7498 15.4 17.7498C15.99 17.7498 16.54 17.3998 16.78 16.8298L22.97 2.07981C23.29 1.31981 22.93 0.439812 22.17 0.119812H22.16Z" fill="black"></path><path d="M32.4 29C35.9898 29 38.9 26.0899 38.9 22.5C38.9 18.9101 35.9898 16 32.4 16C28.8101 16 25.9 18.9101 25.9 22.5C25.9 26.0899 28.8101 29 32.4 29Z" fill="#3613FA"></path><path d="M32.4 26C31.85 26 31.4 25.55 31.4 25V20C31.4 19.45 31.85 19 32.4 19C32.95 19 33.4 19.45 33.4 20V25C33.4 25.55 32.95 26 32.4 26Z" fill="white"></path><path d="M34.9 23.5H29.9C29.35 23.5 28.9 23.05 28.9 22.5C28.9 21.95 29.35 21.5 29.9 21.5H34.9C35.45 21.5 35.9 21.95 35.9 22.5C35.9 23.05 35.45 23.5 34.9 23.5Z" fill="white"></path></g><defs><clipPath id="clip0_24_308"><rect width="38.9" height="29" fill="white"></rect></clipPath></defs></svg>