<svg xmlns="http://www.w3.org/2000/svg" xmlns:xlink="http://www.w3.org/1999/xlink" id="Layer_1" x="0px" y="0px" viewBox="0 0 53 53" style="enable-background:new 0 0 53 53;" xml:space="preserve"><style type="text/css">	.st0{fill:#FFFFFF;}	.st1{fill:#111111;}</style><circle class="st0" cx="26.5" cy="26.5" r="26.5"></circle><path class="st1" d="M37.3,25.5H20.4l3.7-3.7c0.4-0.4,0.4-1,0-1.4c-0.4-0.4-1-0.4-1.4,0l-5.4,5.4c-0.4,0.4-0.4,1,0,1.4l5.4,5.4 c0.2,0.2,0.4,0.3,0.7,0.3s0.5-0.1,0.7-0.3c0.4-0.4,0.4-1,0-1.4l-3.7-3.7h16.8c0.5,0,1-0.4,1-1C38.3,26,37.8,25.5,37.3,25.5 L37.3,25.5z"></path></svg>