<svg xmlns="http://www.w3.org/2000/svg" width="70" height="70" viewBox="0 0 70 70" fill="none"><path opacity="0.8" d="M53.5938 0H16.4062C7.34533 0 0 7.34533 0 16.4062V53.5938C0 62.6547 7.34533 70 16.4062 70H53.5938C62.6547 70 70 62.6547 70 53.5938V16.4062C70 7.34533 62.6547 0 53.5938 0Z" fill="url(#paint0_linear_226_825)"></path><path d="M39 32C39 31.24 38.43 30.6 37.67 30.51C33.35 30.01 29.99 26.65 29.49 22.33C29.4 21.57 28.76 21 28 21C27.24 21 26.6 21.57 26.51 22.33C26.01 26.65 22.65 30.01 18.33 30.51C17.57 30.6 17 31.24 17 32C17 32.76 17.57 33.4 18.33 33.49C22.65 33.99 26.01 37.35 26.51 41.67C26.6 42.43 27.24 43 28 43C28.76 43 29.4 42.43 29.49 41.67C29.99 37.35 33.35 33.99 37.67 33.49C38.43 33.4 39 32.76 39 32ZM28 36.7C26.9 34.73 25.27 33.1 23.3 32C25.27 30.9 26.9 29.27 28 27.3C29.1 29.27 30.73 30.9 32.7 32C30.73 33.1 29.1 34.73 28 36.7ZM51.67 43.88C49.26 43.6 47.39 41.73 47.11 39.32C47.02 38.56 46.38 37.99 45.62 37.99C44.86 37.99 44.22 38.56 44.13 39.32C43.85 41.73 41.98 43.6 39.57 43.88C38.81 43.97 38.24 44.61 38.24 45.37C38.24 46.13 38.81 46.77 39.57 46.86C41.98 47.14 43.85 49.01 44.13 51.42C44.22 52.18 44.86 52.75 45.62 52.75C46.38 52.75 47.02 52.18 47.11 51.42C47.39 49.01 49.26 47.14 51.67 46.86C52.43 46.77 53 46.13 53 45.37C53 44.61 52.43 43.97 51.67 43.88ZM42.83 22.62C43.51 22.7 44.06 23.25 44.14 23.93C44.23 24.69 44.87 25.26 45.63 25.26C46.39 25.26 47.03 24.69 47.12 23.93C47.2 23.25 47.75 22.7 48.43 22.62C49.19 22.53 49.76 21.89 49.76 21.13C49.76 20.37 49.19 19.73 48.43 19.64C47.75 19.56 47.2 19.01 47.12 18.33C47.03 17.57 46.39 17 45.63 17C44.87 17 44.23 17.57 44.14 18.33C44.06 19.01 43.51 19.56 42.83 19.64C42.07 19.73 41.5 20.37 41.5 21.13C41.5 21.89 42.07 22.53 42.83 22.62Z" fill="#FC4CDA"></path><defs><linearGradient id="paint0_linear_226_825" x1="35" y1="0" x2="35" y2="70" gradientUnits="userSpaceOnUse"><stop offset="0.0001" stop-color="#F549DB" stop-opacity="0.32"></stop><stop offset="1" stop-color="#FF00DC" stop-opacity="0.05"></stop></linearGradient></defs></svg>