<svg xmlns="http://www.w3.org/2000/svg" width="70" height="70" viewBox="0 0 70 70" fill="none"><path opacity="0.8" d="M53.5938 0H16.4062C7.34533 0 0 7.34533 0 16.4062V53.5938C0 62.6547 7.34533 70 16.4062 70H53.5938C62.6547 70 70 62.6547 70 53.5938V16.4062C70 7.34533 62.6547 0 53.5938 0Z" fill="url(#paint0_linear_226_827)"></path><path d="M51.13 48.75H21V20.5C21 19.67 20.33 19 19.5 19C18.67 19 18 19.67 18 20.5V50.25C18 51.08 18.67 51.75 19.5 51.75H51.13C51.96 51.75 52.63 51.08 52.63 50.25C52.63 49.42 51.96 48.75 51.13 48.75ZM27.5 42.25C27.88 42.25 28.27 42.1 28.56 41.81L36.27 34.1L39.75 37.58C40.31 38.14 41.31 38.14 41.87 37.58L50.64 28.81C51.23 28.22 51.23 27.27 50.64 26.69C50.05 26.1 49.1 26.1 48.52 26.69L40.81 34.4L37.33 30.92C36.74 30.33 35.79 30.33 35.21 30.92L26.44 39.69C25.85 40.28 25.85 41.23 26.44 41.81C26.73 42.1 27.12 42.25 27.5 42.25Z" fill="#FC4CDA"></path><defs><linearGradient id="paint0_linear_226_827" x1="35" y1="0" x2="35" y2="70" gradientUnits="userSpaceOnUse"><stop offset="0.0001" stop-color="#F549DB" stop-opacity="0.32"></stop><stop offset="1" stop-color="#FF00DC" stop-opacity="0.05"></stop></linearGradient></defs></svg>