<svg xmlns="http://www.w3.org/2000/svg" width="28" height="28" viewBox="0 0 28 28" fill="none"><path d="M14 28C21.732 28 28 21.732 28 14C28 6.26801 21.732 0 14 0C6.26801 0 0 6.26801 0 14C0 21.732 6.26801 28 14 28Z" fill="#FF492C"/><path d="M20.059 10.7238H17.6678C17.7322 10.3486 17.9646 10.1386 18.435 9.90063L18.8746 9.67663C19.6614 9.27343 20.0814 8.81703 20.0814 8.07223C20.0814 7.60463 19.8994 7.23503 19.5382 6.96903C19.177 6.70303 18.7514 6.57143 18.253 6.57143C17.8674 6.56689 17.4889 6.6749 17.1638 6.88223C16.8362 7.08383 16.5926 7.34423 16.4414 7.66903L17.133 8.36343C17.4018 7.82023 17.791 7.55423 18.3034 7.55423C18.7374 7.55423 19.0034 7.77823 19.0034 8.08903C19.0034 8.34943 18.8746 8.56503 18.3762 8.81703L18.0934 8.95423C17.4802 9.26503 17.0546 9.62063 16.8082 10.0238C16.5618 10.427 16.4414 10.9338 16.4414 11.547V11.715H20.059V10.7238Z" fill="white"/><path d="M19.7401 12.8574H15.7809L13.8013 16.2846H17.7605L19.7401 19.7146L21.7197 16.2846L19.7401 12.8574Z" fill="white"/><path d="M14.1429 18.572C11.6229 18.572 9.57051 16.5196 9.57051 13.9996C9.57051 11.4796 11.6229 9.4272 14.1429 9.4272L15.7081 6.154C15.1927 6.0515 14.6684 5.99992 14.1429 6C9.72451 6 6.14331 9.5812 6.14331 13.9996C6.14331 18.418 9.72451 21.9992 14.1429 21.9992C15.8361 22.0024 17.4861 21.4648 18.8525 20.4648L17.1221 17.4632C16.2943 18.1783 15.2369 18.5719 14.1429 18.572Z" fill="white"/></svg>